<mxfile host="app.diagrams.net" modified="2022-03-27T00:24:51.781Z" agent="5.0 (Macintosh; Intel Mac OS X 10_15_7) AppleWebKit/537.36 (KHTML, like Gecko) Chrome/99.0.4844.51 Safari/537.36" etag="DPySyHlx_e5nfbnr2m3K" version="17.1.3" type="github">
  <diagram id="3228e29e-7158-1315-38df-8450db1d8a1d" name="Page-1">
    <mxGraphModel dx="654" dy="392" grid="0" gridSize="10" guides="1" tooltips="1" connect="1" arrows="1" fold="1" page="1" pageScale="1" pageWidth="430" pageHeight="310" background="#EFF1F3" math="0" shadow="0">
      <root>
        <mxCell id="0" />
        <mxCell id="1" parent="0" />
        <mxCell id="Se7m9wbekmZRPqUB92Le-1" value="" style="rounded=1;whiteSpace=wrap;html=1;strokeColor=none;fillColor=#9AC7BF;" parent="1" vertex="1">
          <mxGeometry x="116" y="337" width="128" height="257" as="geometry" />
        </mxCell>
        <mxCell id="spV6VU4cGSJD96CcmEE0-6" value="数据" style="rounded=1;whiteSpace=wrap;html=1;fillColor=#FDD276;strokeColor=default;fontColor=#000000;align=center;" parent="1" vertex="1">
          <mxGeometry x="135.75" y="402" width="103.25" height="17" as="geometry" />
        </mxCell>
        <mxCell id="SSU85J6YOylga-3CZ0uj-2" value="&lt;font&gt;1&lt;/font&gt;" style="rounded=1;whiteSpace=wrap;html=1;fillColor=#FDD276;strokeColor=default;fontColor=#000000;" parent="1" vertex="1">
          <mxGeometry x="120" y="402" width="15.75" height="17" as="geometry" />
        </mxCell>
        <mxCell id="SSU85J6YOylga-3CZ0uj-3" value="数据" style="rounded=1;whiteSpace=wrap;html=1;fillColor=#FDD276;strokeColor=default;fontColor=#000000;align=center;" parent="1" vertex="1">
          <mxGeometry x="135.75" y="419" width="103.25" height="17" as="geometry" />
        </mxCell>
        <mxCell id="SSU85J6YOylga-3CZ0uj-4" value="&lt;font&gt;2&lt;/font&gt;" style="rounded=1;whiteSpace=wrap;html=1;fillColor=#FDD276;strokeColor=default;fontColor=#000000;" parent="1" vertex="1">
          <mxGeometry x="120" y="419" width="15.75" height="17" as="geometry" />
        </mxCell>
        <mxCell id="SSU85J6YOylga-3CZ0uj-5" value="数据" style="rounded=1;whiteSpace=wrap;html=1;fillColor=#FDD276;strokeColor=default;fontColor=#000000;align=center;" parent="1" vertex="1">
          <mxGeometry x="135.75" y="436" width="103.25" height="17" as="geometry" />
        </mxCell>
        <mxCell id="SSU85J6YOylga-3CZ0uj-6" value="&lt;font&gt;3&lt;/font&gt;" style="rounded=1;whiteSpace=wrap;html=1;fillColor=#FDD276;strokeColor=default;fontColor=#000000;" parent="1" vertex="1">
          <mxGeometry x="120" y="436" width="15.75" height="17" as="geometry" />
        </mxCell>
        <mxCell id="Se7m9wbekmZRPqUB92Le-4" value="" style="endArrow=none;dashed=1;html=1;rounded=0;" parent="1" edge="1">
          <mxGeometry width="50" height="50" relative="1" as="geometry">
            <mxPoint x="118" y="395" as="sourcePoint" />
            <mxPoint x="243" y="395" as="targetPoint" />
          </mxGeometry>
        </mxCell>
        <mxCell id="Se7m9wbekmZRPqUB92Le-5" value="页头120Byte" style="text;html=1;strokeColor=none;fillColor=none;align=center;verticalAlign=middle;whiteSpace=wrap;rounded=0;" parent="1" vertex="1">
          <mxGeometry x="149" y="352" width="60" height="30" as="geometry" />
        </mxCell>
        <mxCell id="Se7m9wbekmZRPqUB92Le-6" value="" style="endArrow=none;dashed=1;html=1;rounded=0;" parent="1" edge="1">
          <mxGeometry width="50" height="50" relative="1" as="geometry">
            <mxPoint x="116" y="560" as="sourcePoint" />
            <mxPoint x="242.9999999999999" y="560" as="targetPoint" />
          </mxGeometry>
        </mxCell>
        <mxCell id="Se7m9wbekmZRPqUB92Le-7" value="" style="endArrow=none;dashed=1;html=1;rounded=0;" parent="1" edge="1">
          <mxGeometry width="50" height="50" relative="1" as="geometry">
            <mxPoint x="118" y="525" as="sourcePoint" />
            <mxPoint x="242.9999999999999" y="525" as="targetPoint" />
          </mxGeometry>
        </mxCell>
        <mxCell id="Se7m9wbekmZRPqUB92Le-8" value="页目录" style="text;html=1;strokeColor=none;fillColor=none;align=center;verticalAlign=middle;whiteSpace=wrap;rounded=0;" parent="1" vertex="1">
          <mxGeometry x="149" y="529" width="60" height="30" as="geometry" />
        </mxCell>
        <mxCell id="Se7m9wbekmZRPqUB92Le-10" value="页尾 8Byte" style="text;html=1;strokeColor=none;fillColor=none;align=center;verticalAlign=middle;whiteSpace=wrap;rounded=0;" parent="1" vertex="1">
          <mxGeometry x="149" y="564" width="60" height="30" as="geometry" />
        </mxCell>
        <mxCell id="Se7m9wbekmZRPqUB92Le-11" value="空闲区" style="text;html=1;strokeColor=none;fillColor=none;align=center;verticalAlign=middle;whiteSpace=wrap;rounded=0;fontSize=11;" parent="1" vertex="1">
          <mxGeometry x="149" y="472" width="60" height="30" as="geometry" />
        </mxCell>
        <mxCell id="Se7m9wbekmZRPqUB92Le-12" value="" style="shape=curlyBracket;whiteSpace=wrap;html=1;rounded=1;flipH=1;fontSize=11;fillColor=none;strokeWidth=2;strokeColor=#4A919B;fontColor=#4A919B;" parent="1" vertex="1">
          <mxGeometry x="257" y="399" width="20" height="54" as="geometry" />
        </mxCell>
        <mxCell id="Se7m9wbekmZRPqUB92Le-13" value="&lt;font style=&quot;font-size: 10px&quot;&gt;用户行数据&lt;/font&gt;" style="text;html=1;strokeColor=none;fillColor=none;align=center;verticalAlign=middle;whiteSpace=wrap;rounded=0;fontSize=11;fontColor=#4A919B;" parent="1" vertex="1">
          <mxGeometry x="289" y="409.5" width="67" height="33" as="geometry" />
        </mxCell>
        <mxCell id="Se7m9wbekmZRPqUB92Le-14" value="" style="shape=curlyBracket;whiteSpace=wrap;html=1;rounded=1;flipH=1;fontSize=11;fillColor=none;strokeWidth=2;strokeColor=#4A919B;fontColor=#4A919B;" parent="1" vertex="1">
          <mxGeometry x="257" y="340" width="20" height="54" as="geometry" />
        </mxCell>
        <mxCell id="Se7m9wbekmZRPqUB92Le-15" value="&lt;font style=&quot;font-size: 10px&quot;&gt;页号、前后指针、&lt;br&gt;伪记录等信息&lt;/font&gt;" style="text;html=1;strokeColor=none;fillColor=none;align=center;verticalAlign=middle;whiteSpace=wrap;rounded=0;fontSize=11;fontColor=#4A919B;" parent="1" vertex="1">
          <mxGeometry x="287" y="348.25" width="129" height="37.5" as="geometry" />
        </mxCell>
        <mxCell id="Se7m9wbekmZRPqUB92Le-16" value="" style="shape=curlyBracket;whiteSpace=wrap;html=1;rounded=1;fontSize=10;strokeColor=#4A919B;strokeWidth=2;fillColor=none;" parent="1" vertex="1">
          <mxGeometry x="78" y="337" width="20" height="256" as="geometry" />
        </mxCell>
        <mxCell id="Se7m9wbekmZRPqUB92Le-17" value="&lt;font style=&quot;font-size: 18px&quot; color=&quot;#4a919b&quot;&gt;16Kb&lt;/font&gt;" style="text;html=1;strokeColor=none;fillColor=none;align=center;verticalAlign=middle;whiteSpace=wrap;rounded=0;fontSize=10;" parent="1" vertex="1">
          <mxGeometry x="18" y="450" width="60" height="30" as="geometry" />
        </mxCell>
      </root>
    </mxGraphModel>
  </diagram>
</mxfile>
